<mxfile host="app.diagrams.net" modified="2023-08-15T06:35:25.926Z" agent="Mozilla/5.0 (Windows NT 10.0; Win64; x64) AppleWebKit/537.36 (KHTML, like Gecko) Chrome/115.0.0.0 Safari/537.36" etag="bV85DbXrFjZhuXvAew-d" version="21.6.8" type="device">
  <diagram id="C5RBs43oDa-KdzZeNtuy" name="Page-1">
    <mxGraphModel dx="1517" dy="1047" grid="1" gridSize="10" guides="1" tooltips="1" connect="1" arrows="1" fold="1" page="1" pageScale="1" pageWidth="827" pageHeight="1169" math="0" shadow="0">
      <root>
        <mxCell id="WIyWlLk6GJQsqaUBKTNV-0" />
        <mxCell id="WIyWlLk6GJQsqaUBKTNV-1" parent="WIyWlLk6GJQsqaUBKTNV-0" />
        <mxCell id="r5HO1WXMPO1HEm4mYsf6-11" value="&lt;div style=&quot;color: rgb(204, 204, 204); background-color: rgb(31, 31, 31); font-family: Consolas, &amp;quot;Courier New&amp;quot;, monospace; font-size: 20px; line-height: 27px;&quot;&gt;Задача: Написать программу, которая из имеющегося массива строк формирует новый&amp;nbsp;&lt;/div&gt;&lt;div style=&quot;color: rgb(204, 204, 204); background-color: rgb(31, 31, 31); font-family: Consolas, &amp;quot;Courier New&amp;quot;, monospace; font-size: 20px; line-height: 27px;&quot;&gt;массив из строк, длина которых меньше, либо равна 3 символам. Первоначальный&amp;nbsp;&lt;/div&gt;&lt;div style=&quot;color: rgb(204, 204, 204); background-color: rgb(31, 31, 31); font-family: Consolas, &amp;quot;Courier New&amp;quot;, monospace; font-size: 20px; line-height: 27px;&quot;&gt;массив можно ввести с клавиатуры, либо задать на старте выполнения алгоритма.&amp;nbsp;&lt;/div&gt;&lt;div style=&quot;color: rgb(204, 204, 204); background-color: rgb(31, 31, 31); font-family: Consolas, &amp;quot;Courier New&amp;quot;, monospace; font-size: 20px; line-height: 27px;&quot;&gt;При решении не рекомендуется пользоваться коллекциями,&amp;nbsp;&lt;/div&gt;&lt;div style=&quot;color: rgb(204, 204, 204); background-color: rgb(31, 31, 31); font-family: Consolas, &amp;quot;Courier New&amp;quot;, monospace; font-size: 20px; line-height: 27px;&quot;&gt;лучше обойтись исключительно массивами.&lt;/div&gt;" style="text;html=1;align=left;verticalAlign=middle;resizable=0;points=[];autosize=1;strokeColor=none;fillColor=none;" parent="WIyWlLk6GJQsqaUBKTNV-1" vertex="1">
          <mxGeometry x="20" y="20" width="900" height="150" as="geometry" />
        </mxCell>
        <mxCell id="gJR4pcGQB52Y7HJT858T-1" style="edgeStyle=orthogonalEdgeStyle;rounded=0;orthogonalLoop=1;jettySize=auto;html=1;entryX=0.5;entryY=0;entryDx=0;entryDy=0;" edge="1" parent="WIyWlLk6GJQsqaUBKTNV-1" source="r5HO1WXMPO1HEm4mYsf6-12" target="r5HO1WXMPO1HEm4mYsf6-13">
          <mxGeometry relative="1" as="geometry">
            <mxPoint x="476.93000000000006" y="270" as="targetPoint" />
          </mxGeometry>
        </mxCell>
        <mxCell id="r5HO1WXMPO1HEm4mYsf6-12" value="Начало&lt;br&gt;&lt;div style=&quot;color: rgb(204, 204, 204); background-color: rgb(31, 31, 31); font-family: Consolas, &amp;quot;Courier New&amp;quot;, monospace; font-size: 20px; line-height: 27px;&quot;&gt;GetStringsLessOrEqualThree(&lt;span style=&quot;color: #569cd6;&quot;&gt;string&lt;/span&gt;[] &lt;span style=&quot;color: #9cdcfe;&quot;&gt;input&lt;/span&gt;)&lt;/div&gt;" style="ellipse;whiteSpace=wrap;html=1;fillColor=#e1d5e7;strokeColor=#9673a6;" parent="WIyWlLk6GJQsqaUBKTNV-1" vertex="1">
          <mxGeometry x="176.93" y="170" width="603" height="70" as="geometry" />
        </mxCell>
        <mxCell id="r5HO1WXMPO1HEm4mYsf6-13" value="resultSize = 0" style="rounded=0;whiteSpace=wrap;html=1;fillColor=#fff2cc;strokeColor=#d6b656;" parent="WIyWlLk6GJQsqaUBKTNV-1" vertex="1">
          <mxGeometry x="412.93" y="270" width="130" height="50" as="geometry" />
        </mxCell>
        <mxCell id="r5HO1WXMPO1HEm4mYsf6-27" style="edgeStyle=orthogonalEdgeStyle;rounded=0;orthogonalLoop=1;jettySize=auto;html=1;exitX=0.5;exitY=1;exitDx=0;exitDy=0;entryX=0.5;entryY=0;entryDx=0;entryDy=0;" parent="WIyWlLk6GJQsqaUBKTNV-1" target="r5HO1WXMPO1HEm4mYsf6-17" edge="1" source="r5HO1WXMPO1HEm4mYsf6-16">
          <mxGeometry relative="1" as="geometry">
            <mxPoint x="479.93" y="830" as="sourcePoint" />
          </mxGeometry>
        </mxCell>
        <mxCell id="r5HO1WXMPO1HEm4mYsf6-16" value="i = 0, i &amp;lt; длинна input, 1" style="shape=hexagon;perimeter=hexagonPerimeter2;whiteSpace=wrap;html=1;fixedSize=1;" parent="WIyWlLk6GJQsqaUBKTNV-1" vertex="1">
          <mxGeometry x="407.14" y="350" width="141.57" height="80" as="geometry" />
        </mxCell>
        <mxCell id="r5HO1WXMPO1HEm4mYsf6-19" style="edgeStyle=orthogonalEdgeStyle;rounded=0;orthogonalLoop=1;jettySize=auto;html=1;exitX=0.5;exitY=1;exitDx=0;exitDy=0;entryX=0.5;entryY=0;entryDx=0;entryDy=0;" parent="WIyWlLk6GJQsqaUBKTNV-1" source="r5HO1WXMPO1HEm4mYsf6-17" target="r5HO1WXMPO1HEm4mYsf6-28" edge="1">
          <mxGeometry relative="1" as="geometry">
            <mxPoint x="479.93000000000006" y="970" as="targetPoint" />
          </mxGeometry>
        </mxCell>
        <mxCell id="gJR4pcGQB52Y7HJT858T-8" style="edgeStyle=orthogonalEdgeStyle;rounded=0;orthogonalLoop=1;jettySize=auto;html=1;entryX=1;entryY=0.5;entryDx=0;entryDy=0;" edge="1" parent="WIyWlLk6GJQsqaUBKTNV-1" source="r5HO1WXMPO1HEm4mYsf6-17" target="r5HO1WXMPO1HEm4mYsf6-34">
          <mxGeometry relative="1" as="geometry">
            <Array as="points">
              <mxPoint x="650" y="500" />
              <mxPoint x="650" y="705" />
            </Array>
          </mxGeometry>
        </mxCell>
        <mxCell id="r5HO1WXMPO1HEm4mYsf6-17" value="Длинна&lt;br&gt;input[i] &amp;lt;= 3" style="rhombus;whiteSpace=wrap;html=1;fillColor=#ffe6cc;strokeColor=#d79b00;" parent="WIyWlLk6GJQsqaUBKTNV-1" vertex="1">
          <mxGeometry x="375.42" y="460" width="204.58" height="80" as="geometry" />
        </mxCell>
        <mxCell id="r5HO1WXMPO1HEm4mYsf6-36" style="edgeStyle=orthogonalEdgeStyle;rounded=0;orthogonalLoop=1;jettySize=auto;html=1;entryX=0.5;entryY=0;entryDx=0;entryDy=0;exitX=0.5;exitY=1;exitDx=0;exitDy=0;" parent="WIyWlLk6GJQsqaUBKTNV-1" source="r5HO1WXMPO1HEm4mYsf6-28" target="r5HO1WXMPO1HEm4mYsf6-34" edge="1">
          <mxGeometry relative="1" as="geometry">
            <mxPoint x="479.93000000000006" y="1030" as="sourcePoint" />
          </mxGeometry>
        </mxCell>
        <mxCell id="r5HO1WXMPO1HEm4mYsf6-20" value="Да" style="text;html=1;align=center;verticalAlign=middle;resizable=0;points=[];autosize=1;strokeColor=none;fillColor=none;" parent="WIyWlLk6GJQsqaUBKTNV-1" vertex="1">
          <mxGeometry x="424.93" y="550" width="40" height="30" as="geometry" />
        </mxCell>
        <mxCell id="r5HO1WXMPO1HEm4mYsf6-26" style="edgeStyle=orthogonalEdgeStyle;rounded=0;orthogonalLoop=1;jettySize=auto;html=1;exitX=0;exitY=0.5;exitDx=0;exitDy=0;entryX=0;entryY=0.5;entryDx=0;entryDy=0;" parent="WIyWlLk6GJQsqaUBKTNV-1" source="r5HO1WXMPO1HEm4mYsf6-34" edge="1" target="r5HO1WXMPO1HEm4mYsf6-16">
          <mxGeometry relative="1" as="geometry">
            <mxPoint x="464.93" y="1075" as="sourcePoint" />
            <mxPoint x="410" y="450" as="targetPoint" />
            <Array as="points">
              <mxPoint x="465" y="705" />
              <mxPoint x="465" y="710" />
              <mxPoint x="330" y="710" />
              <mxPoint x="330" y="390" />
            </Array>
          </mxGeometry>
        </mxCell>
        <mxCell id="r5HO1WXMPO1HEm4mYsf6-28" value="resultSize = resultSize + 1" style="rounded=0;whiteSpace=wrap;html=1;fillColor=#fff2cc;strokeColor=#d6b656;" parent="WIyWlLk6GJQsqaUBKTNV-1" vertex="1">
          <mxGeometry x="397.91999999999996" y="580" width="160" height="60" as="geometry" />
        </mxCell>
        <mxCell id="r5HO1WXMPO1HEm4mYsf6-87" style="edgeStyle=orthogonalEdgeStyle;rounded=0;orthogonalLoop=1;jettySize=auto;html=1;entryX=0.5;entryY=0;entryDx=0;entryDy=0;" parent="WIyWlLk6GJQsqaUBKTNV-1" source="r5HO1WXMPO1HEm4mYsf6-32" target="r5HO1WXMPO1HEm4mYsf6-44" edge="1">
          <mxGeometry relative="1" as="geometry" />
        </mxCell>
        <mxCell id="r5HO1WXMPO1HEm4mYsf6-32" value="counter = 0" style="rounded=0;whiteSpace=wrap;html=1;fillColor=#fff2cc;strokeColor=#d6b656;" parent="WIyWlLk6GJQsqaUBKTNV-1" vertex="1">
          <mxGeometry x="407.93" y="960" width="140" height="50" as="geometry" />
        </mxCell>
        <mxCell id="r5HO1WXMPO1HEm4mYsf6-43" style="edgeStyle=orthogonalEdgeStyle;rounded=0;orthogonalLoop=1;jettySize=auto;html=1;entryX=0.5;entryY=0;entryDx=0;entryDy=0;" parent="WIyWlLk6GJQsqaUBKTNV-1" source="r5HO1WXMPO1HEm4mYsf6-34" target="gJR4pcGQB52Y7HJT858T-4" edge="1">
          <mxGeometry relative="1" as="geometry" />
        </mxCell>
        <mxCell id="r5HO1WXMPO1HEm4mYsf6-34" value="" style="ellipse;whiteSpace=wrap;html=1;aspect=fixed;" parent="WIyWlLk6GJQsqaUBKTNV-1" vertex="1">
          <mxGeometry x="462.93" y="690" width="30" height="30" as="geometry" />
        </mxCell>
        <mxCell id="r5HO1WXMPO1HEm4mYsf6-39" style="edgeStyle=orthogonalEdgeStyle;rounded=0;orthogonalLoop=1;jettySize=auto;html=1;entryX=1;entryY=1;entryDx=0;entryDy=0;" parent="WIyWlLk6GJQsqaUBKTNV-1" source="r5HO1WXMPO1HEm4mYsf6-37" target="r5HO1WXMPO1HEm4mYsf6-56" edge="1">
          <mxGeometry relative="1" as="geometry">
            <mxPoint x="719.9299999999998" y="1220" as="targetPoint" />
            <Array as="points">
              <mxPoint x="660" y="870" />
              <mxPoint x="660" y="1406" />
            </Array>
          </mxGeometry>
        </mxCell>
        <mxCell id="r5HO1WXMPO1HEm4mYsf6-41" style="edgeStyle=orthogonalEdgeStyle;rounded=0;orthogonalLoop=1;jettySize=auto;html=1;entryX=0.5;entryY=0;entryDx=0;entryDy=0;" parent="WIyWlLk6GJQsqaUBKTNV-1" source="r5HO1WXMPO1HEm4mYsf6-37" target="r5HO1WXMPO1HEm4mYsf6-32" edge="1">
          <mxGeometry relative="1" as="geometry" />
        </mxCell>
        <mxCell id="r5HO1WXMPO1HEm4mYsf6-37" value="resultSize &amp;gt; 0" style="rhombus;whiteSpace=wrap;html=1;fillColor=#ffe6cc;strokeColor=#d79b00;" parent="WIyWlLk6GJQsqaUBKTNV-1" vertex="1">
          <mxGeometry x="415.43" y="830" width="126" height="80" as="geometry" />
        </mxCell>
        <mxCell id="r5HO1WXMPO1HEm4mYsf6-46" style="edgeStyle=orthogonalEdgeStyle;rounded=0;orthogonalLoop=1;jettySize=auto;html=1;entryX=0.5;entryY=0;entryDx=0;entryDy=0;" parent="WIyWlLk6GJQsqaUBKTNV-1" source="r5HO1WXMPO1HEm4mYsf6-44" target="r5HO1WXMPO1HEm4mYsf6-45" edge="1">
          <mxGeometry relative="1" as="geometry" />
        </mxCell>
        <mxCell id="r5HO1WXMPO1HEm4mYsf6-44" value="i = 0, i &amp;lt; длинна input, 1" style="shape=hexagon;perimeter=hexagonPerimeter2;whiteSpace=wrap;html=1;fixedSize=1;" parent="WIyWlLk6GJQsqaUBKTNV-1" vertex="1">
          <mxGeometry x="391.67" y="1040" width="172.07" height="80" as="geometry" />
        </mxCell>
        <mxCell id="r5HO1WXMPO1HEm4mYsf6-49" style="edgeStyle=orthogonalEdgeStyle;rounded=0;orthogonalLoop=1;jettySize=auto;html=1;" parent="WIyWlLk6GJQsqaUBKTNV-1" source="r5HO1WXMPO1HEm4mYsf6-45" target="r5HO1WXMPO1HEm4mYsf6-52" edge="1">
          <mxGeometry relative="1" as="geometry" />
        </mxCell>
        <mxCell id="gJR4pcGQB52Y7HJT858T-12" style="edgeStyle=orthogonalEdgeStyle;rounded=0;orthogonalLoop=1;jettySize=auto;html=1;entryX=1;entryY=0.5;entryDx=0;entryDy=0;" edge="1" parent="WIyWlLk6GJQsqaUBKTNV-1" source="r5HO1WXMPO1HEm4mYsf6-45" target="r5HO1WXMPO1HEm4mYsf6-56">
          <mxGeometry relative="1" as="geometry">
            <Array as="points">
              <mxPoint x="630" y="1190" />
              <mxPoint x="630" y="1395" />
            </Array>
          </mxGeometry>
        </mxCell>
        <mxCell id="r5HO1WXMPO1HEm4mYsf6-45" value="Длинна&lt;br style=&quot;border-color: var(--border-color);&quot;&gt;input[i] &amp;lt;= 3" style="rhombus;whiteSpace=wrap;html=1;fillColor=#ffe6cc;strokeColor=#d79b00;" parent="WIyWlLk6GJQsqaUBKTNV-1" vertex="1">
          <mxGeometry x="377.29" y="1150" width="202.71" height="80" as="geometry" />
        </mxCell>
        <mxCell id="r5HO1WXMPO1HEm4mYsf6-51" value="Да" style="text;html=1;align=center;verticalAlign=middle;resizable=0;points=[];autosize=1;strokeColor=none;fillColor=none;" parent="WIyWlLk6GJQsqaUBKTNV-1" vertex="1">
          <mxGeometry x="430" y="1240" width="40" height="30" as="geometry" />
        </mxCell>
        <mxCell id="r5HO1WXMPO1HEm4mYsf6-57" style="edgeStyle=orthogonalEdgeStyle;rounded=0;orthogonalLoop=1;jettySize=auto;html=1;entryX=0.5;entryY=0;entryDx=0;entryDy=0;" parent="WIyWlLk6GJQsqaUBKTNV-1" source="r5HO1WXMPO1HEm4mYsf6-52" target="r5HO1WXMPO1HEm4mYsf6-56" edge="1">
          <mxGeometry relative="1" as="geometry" />
        </mxCell>
        <mxCell id="r5HO1WXMPO1HEm4mYsf6-52" value="resultStringArray[counter] =&lt;br&gt;input[i]&lt;br&gt;counter = counter + 1" style="rounded=0;whiteSpace=wrap;html=1;fillColor=#fff2cc;strokeColor=#d6b656;" parent="WIyWlLk6GJQsqaUBKTNV-1" vertex="1">
          <mxGeometry x="388.64" y="1280" width="180" height="60" as="geometry" />
        </mxCell>
        <mxCell id="r5HO1WXMPO1HEm4mYsf6-59" style="edgeStyle=orthogonalEdgeStyle;rounded=0;orthogonalLoop=1;jettySize=auto;html=1;exitX=0;exitY=0.5;exitDx=0;exitDy=0;entryX=0;entryY=0.5;entryDx=0;entryDy=0;" parent="WIyWlLk6GJQsqaUBKTNV-1" source="r5HO1WXMPO1HEm4mYsf6-56" target="r5HO1WXMPO1HEm4mYsf6-44" edge="1">
          <mxGeometry relative="1" as="geometry">
            <Array as="points">
              <mxPoint x="330" y="1395" />
              <mxPoint x="330" y="1080" />
            </Array>
          </mxGeometry>
        </mxCell>
        <mxCell id="r5HO1WXMPO1HEm4mYsf6-61" style="edgeStyle=orthogonalEdgeStyle;rounded=0;orthogonalLoop=1;jettySize=auto;html=1;entryX=0.5;entryY=0;entryDx=0;entryDy=0;" parent="WIyWlLk6GJQsqaUBKTNV-1" source="r5HO1WXMPO1HEm4mYsf6-56" target="r5HO1WXMPO1HEm4mYsf6-62" edge="1">
          <mxGeometry relative="1" as="geometry">
            <mxPoint x="478.6399999999999" y="1450" as="targetPoint" />
          </mxGeometry>
        </mxCell>
        <mxCell id="r5HO1WXMPO1HEm4mYsf6-56" value="" style="ellipse;whiteSpace=wrap;html=1;aspect=fixed;" parent="WIyWlLk6GJQsqaUBKTNV-1" vertex="1">
          <mxGeometry x="463.64" y="1380" width="30" height="30" as="geometry" />
        </mxCell>
        <mxCell id="r5HO1WXMPO1HEm4mYsf6-62" value="Конец" style="ellipse;whiteSpace=wrap;html=1;fillColor=#e1d5e7;strokeColor=#9673a6;" parent="WIyWlLk6GJQsqaUBKTNV-1" vertex="1">
          <mxGeometry x="418.64" y="1460" width="120" height="80" as="geometry" />
        </mxCell>
        <mxCell id="r5HO1WXMPO1HEm4mYsf6-76" style="edgeStyle=orthogonalEdgeStyle;rounded=0;orthogonalLoop=1;jettySize=auto;html=1;entryX=0.5;entryY=0;entryDx=0;entryDy=0;" parent="WIyWlLk6GJQsqaUBKTNV-1" source="r5HO1WXMPO1HEm4mYsf6-13" target="r5HO1WXMPO1HEm4mYsf6-16" edge="1">
          <mxGeometry relative="1" as="geometry">
            <mxPoint x="477" y="410" as="sourcePoint" />
            <mxPoint x="477" y="450" as="targetPoint" />
          </mxGeometry>
        </mxCell>
        <mxCell id="gJR4pcGQB52Y7HJT858T-3" value="Нет" style="text;html=1;align=center;verticalAlign=middle;resizable=0;points=[];autosize=1;strokeColor=none;fillColor=none;" vertex="1" parent="WIyWlLk6GJQsqaUBKTNV-1">
          <mxGeometry x="590" y="460" width="40" height="30" as="geometry" />
        </mxCell>
        <mxCell id="gJR4pcGQB52Y7HJT858T-9" style="edgeStyle=orthogonalEdgeStyle;rounded=0;orthogonalLoop=1;jettySize=auto;html=1;entryX=0.5;entryY=0;entryDx=0;entryDy=0;" edge="1" parent="WIyWlLk6GJQsqaUBKTNV-1" source="gJR4pcGQB52Y7HJT858T-4" target="r5HO1WXMPO1HEm4mYsf6-37">
          <mxGeometry relative="1" as="geometry" />
        </mxCell>
        <mxCell id="gJR4pcGQB52Y7HJT858T-4" value="resultStringArray" style="rounded=0;whiteSpace=wrap;html=1;fillColor=#fff2cc;strokeColor=#d6b656;" vertex="1" parent="WIyWlLk6GJQsqaUBKTNV-1">
          <mxGeometry x="418.43" y="750" width="120" height="40" as="geometry" />
        </mxCell>
        <mxCell id="gJR4pcGQB52Y7HJT858T-6" value="Да" style="text;html=1;align=center;verticalAlign=middle;resizable=0;points=[];autosize=1;strokeColor=none;fillColor=none;" vertex="1" parent="WIyWlLk6GJQsqaUBKTNV-1">
          <mxGeometry x="399.93" y="920" width="40" height="30" as="geometry" />
        </mxCell>
        <mxCell id="gJR4pcGQB52Y7HJT858T-11" value="Нет" style="text;html=1;align=center;verticalAlign=middle;resizable=0;points=[];autosize=1;strokeColor=none;fillColor=none;" vertex="1" parent="WIyWlLk6GJQsqaUBKTNV-1">
          <mxGeometry x="580" y="1158" width="40" height="30" as="geometry" />
        </mxCell>
      </root>
    </mxGraphModel>
  </diagram>
</mxfile>
